<svg version="1.0" xmlns="http://www.w3.org/2000/svg"
 width="4430.000000pt" height="3001.000000pt" viewBox="0 0 4430.000000 3001.000000"
 preserveAspectRatio="xMidYMid meet">

<g transform="translate(0.000000,3001.000000) scale(0.100000,-0.100000)"
fill="#000000" stroke="none">
<path d="M39860 20553 c-1397 -61 -2476 -569 -2978 -1403 -298 -495 -432
-1201 -432 -2274 0 -634 49 -1047 176 -1488 95 -333 299 -744 508 -1023 263
-352 696 -688 2039 -1584 766 -510 1102 -755 1395 -1015 57 -50 126 -118 153
-151 169 -205 266 -579 299 -1145 19 -331 11 -568 -26 -788 -16 -92 -16 -92 8
-140 17 -35 34 -53 68 -69 l44 -23 1505 0 c1501 0 1505 0 1547 21 65 31 82 66
94 200 30 341 39 904 20 1294 -57 1150 -274 1925 -682 2438 -441 553 -1291
1197 -2708 2052 -341 205 -426 261 -605 395 -310 233 -442 397 -523 651 -73
228 -97 423 -97 789 1 238 3 291 22 395 63 346 194 539 416 610 64 20 98 25
187 25 250 0 401 -105 459 -318 55 -204 71 -452 71 -1122 0 -466 1 -486 20
-518 11 -18 34 -41 52 -52 33 -20 50 -20 1530 -18 l1498 3 36 36 c21 21 39 52
44 75 18 74 4 910 -20 1245 -34 482 -101 880 -196 1174 -168 517 -545 907
-1194 1235 -582 293 -1218 447 -2035 490 -171 9 -527 11 -695 3z"/>
<path d="M82 20260 c-18 -11 -41 -34 -52 -52 -20 -33 -20 -62 -20 -5338 0
-5148 1 -5306 19 -5340 11 -20 36 -44 61 -57 l44 -23 1386 2 1387 3 37 29 c71
54 66 -117 66 2128 0 2011 0 2032 20 2073 52 108 211 113 272 9 12 -21 101
-611 313 -2079 326 -2251 300 -2106 380 -2145 41 -20 62 -20 1326 -20 1231 0
1286 1 1325 19 47 22 80 62 89 111 3 19 129 954 279 2077 220 1637 278 2049
293 2075 56 97 209 95 268 -4 20 -33 20 -55 25 -2105 l5 -2072 21 -27 c11 -15
33 -37 48 -48 27 -21 29 -21 1426 -21 1397 0 1399 0 1426 21 15 11 37 33 48
48 l21 27 2 5307 3 5307 -23 39 c-12 21 -38 47 -57 57 -33 18 -110 19 -2166
19 l-2131 0 -33 -22 c-18 -13 -41 -34 -52 -48 -15 -21 -71 -435 -333 -2490
-174 -1356 -320 -2479 -326 -2496 -18 -56 -85 -104 -146 -104 -51 0 -113 39
-134 84 -14 30 -62 335 -179 1146 -88 608 -184 1292 -215 1520 -101 756 -305
2149 -335 2283 -11 49 -34 84 -73 107 -31 20 -68 20 -2157 20 -2103 0 -2125 0
-2158 -20z"/>
<path d="M12590 20258 c-18 -13 -42 -35 -52 -49 -16 -21 -128 -843 -719 -5298
-384 -2900 -699 -5290 -699 -5311 0 -42 29 -92 73 -124 l28 -21 3856 -3 c2595
-1 3868 1 3893 8 47 13 97 67 106 115 4 24 -239 1687 -780 5323 -636 4277
-790 5292 -804 5312 -11 14 -34 35 -52 48 l-33 22 -2392 0 -2392 0 -33 -22z
m2596 -4234 c19 -9 44 -30 56 -47 25 -35 22 -8 98 -867 91 -1019 188 -2004
279 -2828 27 -237 36 -355 30 -377 -11 -40 -66 -93 -110 -105 -20 -6 -212 -10
-464 -10 -427 0 -431 0 -475 23 -61 30 -90 76 -90 141 0 135 109 1194 210
2051 102 865 237 1905 251 1942 31 81 131 117 215 77z"/>
<path d="M19870 20261 c-19 -10 -45 -36 -57 -57 l-23 -39 3 -5307 2 -5307 21
-27 c11 -15 33 -37 48 -48 27 -21 29 -21 1628 -24 1599 -2 1601 -2 1644 18 86
42 78 -49 84 1045 5 951 5 971 25 1005 58 100 210 102 267 4 9 -16 123 -463
253 -994 130 -531 244 -981 254 -1000 11 -21 34 -43 61 -57 l44 -23 1587 2
1588 3 28 21 c44 33 73 82 73 126 0 21 -294 1026 -684 2336 -377 1263 -690
2317 -697 2342 l-12 45 952 2880 c691 2094 951 2893 951 2925 0 54 -27 102
-72 130 -33 20 -54 20 -1522 20 l-1488 0 -38 -21 c-20 -11 -44 -33 -52 -47 -9
-15 -284 -927 -612 -2027 -327 -1100 -603 -2016 -613 -2035 -20 -38 -89 -80
-133 -80 -42 0 -113 42 -135 80 -20 35 -20 50 -25 2035 -5 1907 -6 2002 -23
2028 -10 16 -32 37 -50 47 -31 20 -64 20 -1637 20 -1544 0 -1607 -1 -1640 -19z"/>
<path d="M29530 20258 c-18 -13 -41 -34 -51 -48 -16 -21 -141 -944 -719 -5304
-385 -2903 -700 -5293 -700 -5311 0 -37 32 -88 73 -119 l28 -21 3879 0 3879 0
28 21 c43 32 73 82 73 123 0 20 -353 2409 -784 5308 -589 3963 -788 5279 -801
5301 -10 17 -35 40 -55 51 l-38 21 -2389 0 -2390 0 -33 -22z m2618 -4245 c55
-40 58 -57 102 -553 93 -1061 202 -2184 292 -2995 28 -253 51 -483 51 -510 1
-60 -25 -110 -75 -140 -31 -19 -54 -20 -470 -23 -303 -2 -451 1 -480 8 -54 15
-104 65 -114 115 -14 78 100 1202 242 2375 58 486 188 1507 204 1603 16 103
72 151 168 144 32 -2 64 -12 80 -24z"/>
<path d="M36645 11796 c-37 -16 -70 -52 -84 -89 -14 -37 -15 -836 -1 -1197 18
-478 62 -921 96 -982 11 -19 38 -43 64 -55 l44 -23 1431 0 c940 0 1443 4 1467
10 41 12 94 66 104 107 4 15 1 79 -6 142 -10 85 -14 364 -17 1051 -4 920 -5
935 -25 971 -11 20 -37 46 -58 58 l-38 21 -1473 0 c-1206 -1 -1479 -3 -1504
-14z"/>
</g>
</svg>
